<?xml version="1.0" encoding="utf-8"?>
<!-- Generator: Adobe Illustrator 24.2.0, SVG Export Plug-In . SVG Version: 6.00 Build 0)  -->
<svg version="1.1" id="Layer_1" xmlns="http://www.w3.org/2000/svg" xmlns:xlink="http://www.w3.org/1999/xlink" x="0px" y="0px"
	 viewBox="0 0 512 512" style="enable-background:new 0 0 512 512;" xml:space="preserve">
<style type="text/css">
	.st0{fill:#CCCCCC;}
</style>
<g>
	<g>
		<path class="st0" d="M101.27,46.8C91.7,73.67,79.19,98.6,70.05,125.76c-2.02,6-2.24,12.52-0.28,18.55
			c3.44,10.57,13.55,20.55,43.1-3.07c7.73-6.17,15.76-11.95,24.21-17.1c0.97-0.59,1.88-1.14,2.67-1.6
			c87.11-50.59,200.7-18.86,248.82,69.45c45.49,83.48,23.77,172.47-55.53,224.79c-35.12,23.18-73.92,32.53-115.72,28.55
			c-47.95-4.57-89.04-26.77-121.13-62.68c-6.34-7.09-15.62-7.95-21.92-2.21c-6.38,5.81-6.54,14.98-0.27,22.11
			c14.27,16.22,30.25,30.59,49,41.35c71.58,41.11,144.95,43.18,217.28,3.57c7.03-3.85,13.63-8.51,20.43-12.79l21.23-18.21
			c0.72-0.98,1.38-2.01,2.18-2.93c6.18-7.16,12.9-13.92,18.52-21.5c71.91-97.13,46.21-219.19-54.3-286.67
			C278.88,58.74,205.17,55.99,130.4,93.6c-7.41,3.73-14.34,8.4-22.15,13.02c0.57-1.97,0.92-3.39,1.39-4.78
			c0,0,14.59-29.57,19.88-45.65c2.96-9-1-17.68-9.44-19.73c0,0-1.11-0.31-2.86-0.42C110.1,35.59,103.66,40.09,101.27,46.8z"/>
	</g>
	<g>
		<g>
			<path class="st0" d="M126.55,322.05h-19.92v-82.32l-12.87,4.87v-21.16l15.78-7.13h17.02V322.05z"/>
			<path class="st0" d="M155.71,315.18c-5.38-5.31-8.07-12.66-8.07-22.07v-48.06c0-9.5,2.7-16.88,8.11-22.14
				c5.4-5.26,13.25-7.89,23.52-7.89c10.33,0,18.18,2.62,23.56,7.85s8.07,12.63,8.07,22.18v48.06c0,9.5-2.7,16.88-8.11,22.14
				c-5.41,5.26-13.25,7.89-23.52,7.89C168.95,323.15,161.09,320.49,155.71,315.18z M188.14,299.84c1.89-2.74,2.84-6.68,2.84-11.82
				v-37.88c0-5.14-0.95-9.08-2.84-11.82c-1.89-2.74-4.85-4.11-8.87-4.11c-4.02,0-6.98,1.37-8.87,4.11
				c-1.89,2.74-2.84,6.68-2.84,11.82v37.88c0,5.14,0.95,9.08,2.84,11.82c1.89,2.74,4.85,4.11,8.87,4.11
				C183.3,303.95,186.25,302.58,188.14,299.84z"/>
			<path class="st0" d="M234.97,315.18c-5.38-5.31-8.07-12.66-8.07-22.07v-48.06c0-9.5,2.7-16.88,8.11-22.14
				c5.4-5.26,13.25-7.89,23.52-7.89c10.33,0,18.18,2.62,23.56,7.85s8.07,12.63,8.07,22.18v48.06c0,9.5-2.7,16.88-8.11,22.14
				c-5.41,5.26-13.25,7.89-23.52,7.89C248.21,323.15,240.36,320.49,234.97,315.18z M267.41,299.84c1.89-2.74,2.84-6.68,2.84-11.82
				v-37.88c0-5.14-0.95-9.08-2.84-11.82c-1.89-2.74-4.85-4.11-8.87-4.11c-4.02,0-6.98,1.37-8.87,4.11
				c-1.89,2.74-2.84,6.68-2.84,11.82v37.88c0,5.14,0.95,9.08,2.84,11.82c1.89,2.74,4.85,4.11,8.87,4.11
				C262.56,303.95,265.52,302.58,267.41,299.84z"/>
		</g>
		<path class="st0" d="M307.42,247.29c-2.59-2.55-3.88-6.11-3.88-10.68v-7.08c0-4.57,1.29-8.13,3.88-10.68
			c2.59-2.55,6.24-3.83,10.97-3.83c4.76,0,8.42,1.28,10.99,3.83c2.57,2.55,3.85,6.15,3.85,10.8v6.97c0,4.61-1.3,8.18-3.88,10.71
			c-2.59,2.53-6.24,3.8-10.97,3.8C313.66,251.12,310,249.84,307.42,247.29z M353.97,215.81h14.11l-43.07,82.4H310.9L353.97,215.81z
			 M320.28,238.53c0.43-0.57,0.65-1.38,0.65-2.44v-6.23c0-0.98-0.22-1.75-0.65-2.3c-0.43-0.55-1.07-0.82-1.9-0.82
			c-0.83,0-1.47,0.27-1.9,0.82c-0.43,0.55-0.65,1.35-0.65,2.41v6.12c0,1.1,0.22,1.92,0.65,2.47c0.43,0.55,1.07,0.82,1.9,0.82
			C319.21,239.38,319.85,239.1,320.28,238.53z M348.39,295.24c-2.59-2.55-3.88-6.11-3.88-10.68v-7.08c0-4.57,1.29-8.13,3.88-10.68
			c2.59-2.55,6.24-3.83,10.97-3.83c4.76,0,8.42,1.28,10.99,3.83c2.57,2.55,3.85,6.15,3.85,10.8v6.97c0,4.61-1.3,8.18-3.88,10.71
			c-2.59,2.53-6.24,3.8-10.97,3.8C354.63,299.06,350.98,297.79,348.39,295.24z M361.26,286.48c0.43-0.57,0.65-1.38,0.65-2.44v-6.23
			c0-0.98-0.22-1.75-0.65-2.3c-0.43-0.55-1.07-0.82-1.9-0.82c-0.83,0-1.47,0.27-1.9,0.82c-0.43,0.55-0.65,1.35-0.65,2.41v6.12
			c0,1.1,0.22,1.92,0.65,2.47c0.43,0.55,1.07,0.82,1.9,0.82C360.19,287.33,360.82,287.05,361.26,286.48z"/>
	</g>
</g>
</svg>
