<?xml version="1.0" encoding="utf-8"?>
<!-- Generator: Adobe Illustrator 24.2.0, SVG Export Plug-In . SVG Version: 6.00 Build 0)  -->
<svg version="1.1" id="Layer_1" xmlns="http://www.w3.org/2000/svg" xmlns:xlink="http://www.w3.org/1999/xlink" x="0px" y="0px"
	 viewBox="0 0 512 512" style="enable-background:new 0 0 512 512;" xml:space="preserve">
<style type="text/css">
	.st0{fill:#CCCCCC;}
</style>
<g>
	<path class="st0" d="M47.6,210.38v-81.4c0-4.51,3.65-8.16,8.16-8.16h72.34c-0.71-1.6-1.16-2.7-1.67-3.78
		c-14.97-31.38,7.73-68.63,42.47-69.42c18.92-0.43,33.37,7.93,43.69,23.64c8.24,12.55,18.09,23.72,29.09,33.87
		c4.65,4.29,9.58,8.28,14.29,12.34c16.31-12.34,28.68-25.7,46.34-49.92c13.51-18.53,38.51-25.19,59.22-15.77
		c21.26,9.67,32.86,32.51,27.68,54.98c-1.08,4.68-3,9.17-4.7,14.23h71.72c4.51,0,8.16,3.65,8.16,8.16v81.34
		c0,4.51-3.65,8.16-8.16,8.16H440.2v237.66c0,4.51-3.65,8.16-8.16,8.16H80.19c-4.51,0-8.16-3.65-8.16-8.16V218.54H55.75
		C51.25,218.54,47.6,214.88,47.6,210.38z M100.72,439.75h114.33c2.25,0,4.08-1.83,4.08-4.08V222.84c0-2.25-1.83-4.08-4.08-4.08
		H100.72c-2.25,0-4.08,1.83-4.08,4.08v212.83C96.64,437.92,98.47,439.75,100.72,439.75z M297.04,439.81h114.38
		c2.25,0,4.08-1.83,4.08-4.08v-212.8c0-2.25-1.83-4.08-4.08-4.08H297.04c-2.25,0-4.08,1.83-4.08,4.08v212.8
		C292.96,437.98,294.79,439.81,297.04,439.81z M215.2,145.54H76.45c-2.25,0-4.08,1.83-4.08,4.08v40.2c0,2.25,1.83,4.08,4.08,4.08
		H215.2c2.25,0,4.08-1.83,4.08-4.08v-40.2C219.28,147.36,217.45,145.54,215.2,145.54z M244.18,149.51v286.11
		c0,2.25,1.83,4.08,4.08,4.08h15.78c2.25,0,4.08-1.83,4.08-4.08V149.51c0-2.25-1.83-4.08-4.08-4.08h-15.78
		C246.01,145.43,244.18,147.26,244.18,149.51z M297.02,193.82h138.9c2.25,0,4.08-1.83,4.08-4.08v-40.19c0-2.25-1.83-4.08-4.08-4.08
		h-138.9c-2.25,0-4.08,1.83-4.08,4.08v40.19C292.94,191.99,294.77,193.82,297.02,193.82z M221.31,120.78
		c0.35-0.43,0.69-0.86,1.04-1.29c-3.38-3.06-7.2-5.77-10.07-9.26c-7.91-9.63-15.32-19.66-23.13-29.38
		c-5.53-6.89-13.04-9.63-21.68-8.55c-12.55,1.57-21.7,12.46-21.27,24.77c0.46,12.98,10.54,23.35,23.83,23.63
		C187.12,121.04,204.22,120.78,221.31,120.78z M290.54,120.82c13.84,0,27.38,0.01,40.92-0.01c4.07-0.01,8.16,0.17,12.2-0.19
		c11.49-1.04,20.17-9.26,22.05-20.56c1.76-10.62-4.1-21.34-14.16-25.9c-10.03-4.55-21.82-1.71-28.87,7.21
		c-3.86,4.89-7.09,10.28-11.05,15.08C304.9,104.58,297.83,112.43,290.54,120.82z"/>
</g>
</svg>
