<?xml version="1.0" encoding="utf-8"?>
<!-- Generator: Adobe Illustrator 24.2.0, SVG Export Plug-In . SVG Version: 6.00 Build 0)  -->
<svg version="1.1" id="Layer_1" xmlns="http://www.w3.org/2000/svg" xmlns:xlink="http://www.w3.org/1999/xlink" x="0px" y="0px"
	 viewBox="0 0 512 512" style="enable-background:new 0 0 512 512;" xml:space="preserve">
<style type="text/css">
	.st0{fill:#CCCCCC;}
</style>
<g>
	<path class="st0" d="M261.12,447.63c-7.23,0-14.42-1.45-20.96-4.54c-1.46-0.69-2.86-1.45-4.16-2.36
		c-11.92-8.25-16.5-23.5-12.04-37.21c4.38-13.47,17.03-23.03,31.25-23.2c9.59-0.11,19.27-0.46,28.76,0.63
		c11.73,1.34,20.02,8.41,25.06,19.04c1.01,2.13,2.1,2.82,4.44,2.79c10.85-0.15,21.71-0.01,32.56-0.08
		c19.44-0.13,34.05-14.68,34.26-34.07c0.04-3.47,0.01-6.94,0.01-10.84c-1.61,0-2.94,0-4.27,0c-9.73,0-19.46,0.07-29.19-0.03
		c-6.6-0.07-11.42-4.77-11.42-11.33c-0.06-45.03-0.05-90.06-0.01-135.09c0.01-6.77,4.82-11.43,11.66-11.48
		c10.71-0.07,21.42-0.02,32.14-0.02c-1.61-46.73-42.87-108.56-116.24-112.77c-72.01-4.13-125.96,52.09-130.47,112.77
		c1.22,0,2.4,0,3.58,0c9.48,0,18.96,0.01,28.44,0.01c10.11,0,12.1,7.67,12.1,13.01l-0.07,130.89c0.81,8.6-3.95,14.01-12.04,14.03
		c-14.22,0.04-28.44,0.03-42.67,0.01c-8.01-0.01-12.52-4.52-12.57-12.49c-0.01-2.11,0-4.22,0-6.51c-3.78-0.26-7.41-0.15-10.89-0.8
		c-16.68-3.11-25.65-14.37-30.16-29.74c-1.87-6.37-2.64-13.06-3.93-19.6c0.02-6.96,0.03-13.73,0.05-20.7
		c0.24-1.2,0.44-2.41,0.74-3.6c1.98-7.81,3.2-15.93,6.16-23.36c4.49-11.27,13.06-18.74,25.19-21.32c4.08-0.87,8.34-0.89,12.84-1.33
		c-1.17-40.12,11.03-75.77,38.24-105.65c28.53-31.33,64.67-47.67,107.6-48.3c33.93-0.51,66.95,11.35,93.13,32.93
		c37.99,31.31,55.56,72.29,54.62,121.33c23.96,0.59,36.36,10.56,41.95,33.79c1.25,5.19,2.06,10.54,2.44,15.86
		c1.14,16.17,0.51,32.2-6.17,47.34c-5.32,12.07-14.19,20.05-27.47,22.36c-3.49,0.61-7.11,0.53-10.84,0.78c0,9.94,0.02,19.66,0,29.38
		c-0.09,32.17-24.72,56.87-56.86,56.99c-10.6,0.04-21.21,0.12-31.81-0.07c-2.74-0.05-4.12,0.66-5.29,3.25
		c-3.23,7.18-8.58,12.52-15.73,15.86c-0.43,0.2-0.86,0.39-1.3,0.57c-4.73,1.97-9.85,2.86-14.97,2.86h-15.69V447.63z M131.98,222.46
		c0,37.76,0,75.22,0,112.56c7.54,0,14.82,0,22,0c0-37.67,0-75.03,0-112.56C146.6,222.46,139.42,222.46,131.98,222.46z
		 M380.12,222.52c-7.63,0-14.81,0-22.04,0c0,37.67,0,75.12,0,112.53c7.52,0,14.79,0,22.04,0
		C380.12,297.4,380.12,260.04,380.12,222.52z M109.09,241.3c-2.28,0-4.49-0.25-6.64,0.04c-7.44,1-10.55,6.56-12.51,12.83
		c-3.39,10.86-3.99,22.11-2.62,33.29c0.85,6.95,2.42,14.01,5.01,20.49c2.87,7.19,9.03,9.37,16.77,7.52
		C109.09,291,109.09,266.5,109.09,241.3z M402.86,315.56c8.51,1.55,13.64-0.83,17.22-8.07c1.26-2.54,2.27-5.28,2.9-8.04
		c2.8-12.16,3.13-24.48,0.95-36.72c-0.92-5.18-2.6-10.42-5.01-15.08c-3.16-6.09-9.7-7.9-16.06-5.45
		C402.86,266.56,402.86,290.95,402.86,315.56z M267.27,425.16c3.61,0,7.22,0.06,10.82-0.01c6.63-0.13,11.56-4.91,11.59-11.16
		c0.04-6.25-4.88-11.17-11.47-11.26c-7.34-0.1-14.68-0.1-22.02,0c-6.55,0.09-11.48,5.09-11.4,11.32c0.07,6.1,4.91,10.91,11.28,11.08
		C259.8,425.25,263.53,425.16,267.27,425.16z"/>
</g>
</svg>
