<?xml version="1.0" encoding="utf-8"?>
<!-- Generator: Adobe Illustrator 24.2.0, SVG Export Plug-In . SVG Version: 6.00 Build 0)  -->
<svg version="1.1" id="Layer_1" xmlns="http://www.w3.org/2000/svg" xmlns:xlink="http://www.w3.org/1999/xlink" x="0px" y="0px"
	 viewBox="0 0 512 512" style="enable-background:new 0 0 512 512;" xml:space="preserve">
<style type="text/css">
	.st0{fill:#CCCCCC;}
</style>
<g>
	<path class="st0" d="M471.4,265.67c-0.5-6.14-1.31-11.59-4.05-17.02c-14.52-28.75-21.98-43.65-36.32-72.49
		c-5.54-11.15-14.3-16.44-26.75-16.33c-21.7,0.17-43.41,0.05-65.12,0.05h-5.03v-5.12c0-7.63,0-8.54,0-8.54v-8.46
		c-0.01-18.2-10.61-28.75-28.89-28.75c-58.31-0.01-116.61,0-174.92,0c-23.3,0-46.59-0.05-69.89,0.02
		c-12.6,0.03-22.13,7.25-25.8,19.27c-0.26,0.82-0.59,1.61-0.89,2.41v198.47c1.35,3.17,2.32,6.58,4.12,9.46
		c4.95,7.93,12.36,11.99,21.69,12.19c8.64,0.17,17.28,0.03,26.17,0.03c0.03,0.9,0.08,1.8,0.15,2.68v0.03
		c0.92,11.88,5.01,22.34,13.28,32.02h-0.09c9.55,10.67,23.43,17.39,38.87,17.39c15.64,0,29.67-6.89,39.22-17.79h-0.06
		c8.26-9.84,12.43-20.81,12.96-33.42c0.02-0.19,0.02-0.38,0.03-0.58h166.47c0.07,1.55,0.19,3.1,0.37,4.62c0,0.02,0,0.05,0.01,0.06
		c1.24,10.62,5.18,20.45,12.76,29.32h-0.09c9.22,10.53,22.62,17.32,37.6,17.77h3.22c14.99-0.45,28.37-7.24,37.59-17.76h-0.03
		c7.7-9.31,11.89-19.45,12.84-30.84c0.07-0.86,0.13-1.72,0.16-2.59c0.05-1.18,1.26-2.78,2.37-3.38
		c10.06-5.35,14.94-13.66,14.93-24.98C478.24,308.82,472.66,281.24,471.4,265.67z M137.55,385.59
		c-19.08-0.15-34.54-16.01-34.34-35.19c0.21-18.91,15.87-34.3,34.87-34.24c19.11,0.06,34.68,15.81,34.56,34.97
		C172.52,370.24,156.72,385.75,137.55,385.59z M316.77,333.52h-4.72c-40.21,0-80.41-0.03-120.63,0.07c-2.56,0.01-4-0.56-5.22-2.37
		c0-0.01,0-0.01-0.01-0.02c-0.29-0.42-0.56-0.9-0.82-1.46c-3.1-6.43-6.87-11.94-11.3-16.42c-0.06-0.06-0.13-0.12-0.19-0.17
		c-6.25-6.31-13.84-10.61-22.7-12.69c-4.25-1.01-8.77-1.51-13.59-1.47c-4.76,0.03-9.22,0.57-13.4,1.59
		c-0.19,0.06-0.37,0.1-0.55,0.15c-8.73,2.25-16.19,6.66-22.33,13.04c-0.08,0.08-0.17,0.16-0.26,0.26
		c-4.19,4.41-7.76,9.74-10.71,15.93c-0.26,0.55-0.52,1.01-0.79,1.42c-1.17,1.74-2.55,2.29-4.95,2.23
		c-7.52-0.17-15.03-0.05-22.56-0.07c-7.97-0.01-10.93-3.02-10.96-11.05V138.34c0-9.26,2.66-11.96,11.8-11.96h242.14
		c8.94,0,11.74,2.75,11.74,11.59V333.52z M426.86,212.05c1.17,0,2.93,0.78,3.41,1.7c8.37,16.46,9.63,19.07,18.12,36.05h-72.19
		v-37.84C395.64,211.97,407.77,211.94,426.86,212.05z M408.76,385.59c-19.14-0.01-34.74-15.69-34.68-34.85
		c0.06-19.15,15.76-34.67,34.95-34.58c19.11,0.1,34.65,15.9,34.48,35.06C443.35,370.14,427.72,385.6,408.76,385.59z M458.74,331.35
		c-0.57-0.08-1.13-0.15-1.68-0.23c-0.05-0.1-0.09-0.21-0.14-0.31c-3.99-8.93-9.77-16.42-17.73-22.14
		c-26.96-19.36-64.76-9.05-78.03,21.41c-0.26,0.58-0.51,1.08-0.79,1.5c-1.03,1.57-2.33,2.09-4.6,2.02
		c-7.05-0.21-14.12-0.07-21.4-0.07V177.24h4.07c21.99,0,43.99,0.1,65.99-0.07c5.51-0.05,9.05,2.03,11.2,7.02
		c1.43,3.28,3.14,6.45,5.1,10.42h-5.07c-17.8,0-28.64-0.01-46.44,0.01c-7.74,0.01-10.75,3.04-10.75,10.8
		c-0.02,21.71-0.02,29.5,0,51.2c0,7.96,2.99,10.89,11.11,10.89c30.97,0.01,48.01,0.01,78.98,0.01h4.99
		c0.14,1.13,0.37,2.08,0.37,3.03c0.01,3.32,0.46,7.54,1.15,12.21H444.7c-2.51,0-4.55,2.03-4.55,4.54v8.8c0,2.51,2.04,4.54,4.55,4.54
		h13.36c1.51,8.75,2.83,17.18,2.74,22.91C460.75,326.15,459.46,328.74,458.74,331.35z"/>
</g>
</svg>
